<svg xmlns="http://www.w3.org/2000/svg" viewBox="0 0 128 128" role="img" aria-labelledby="title desc">
  <title id="title">RelayMint logo</title>
  <desc id="desc">A rounded gateway icon with mint and teal gradient bars and routing dots.</desc>
  <defs>
    <linearGradient id="bg" x1="18" y1="14" x2="110" y2="114" gradientUnits="userSpaceOnUse">
      <stop offset="0" stop-color="#0f172a"/>
      <stop offset="1" stop-color="#10253d"/>
    </linearGradient>
    <linearGradient id="mint" x1="28" y1="28" x2="98" y2="98" gradientUnits="userSpaceOnUse">
      <stop offset="0" stop-color="#7cf7d4"/>
      <stop offset="0.55" stop-color="#33d6c7"/>
      <stop offset="1" stop-color="#1b8dbf"/>
    </linearGradient>
  </defs>
  <rect x="10" y="10" width="108" height="108" rx="30" fill="url(#bg)"/>
  <path d="M40 28h48c11.046 0 20 8.954 20 20v52H84V52c0-4.418-3.582-8-8-8H52c-4.418 0-8 3.582-8 8v48H20V48c0-11.046 8.954-20 20-20z" fill="url(#mint)"/>
  <path d="M56 58h16v42H56z" fill="#0f172a"/>
  <circle cx="36" cy="90" r="7" fill="#7cf7d4"/>
  <circle cx="64" cy="92" r="7" fill="#d8fff5"/>
  <circle cx="92" cy="90" r="7" fill="#3abed2"/>
  <path d="M36 90h56" stroke="#9ff8e6" stroke-width="5" stroke-linecap="round" opacity=".25"/>
</svg>
